<svg xmlns="http://www.w3.org/2000/svg" width="17" height="17" viewBox="0 0 17 17">
  <g id="Icon_material-person-outline" data-name="Icon material-person-outline" transform="translate(-6 -6)" fill="none">
    <path d="M14.5,8.019a2.231,2.231,0,1,1-2.231,2.231A2.231,2.231,0,0,1,14.5,8.019m0,9.562c3.156,0,6.481,1.551,6.481,2.231v1.169H8.019V19.813c0-.68,3.326-2.231,6.481-2.231M14.5,6a4.25,4.25,0,1,0,4.25,4.25A4.249,4.249,0,0,0,14.5,6Zm0,9.562c-2.837,0-8.5,1.424-8.5,4.25V23H23V19.813C23,16.986,17.337,15.562,14.5,15.562Z" stroke="none"/>
    <path d="M 14.5 7 C 12.70793914794922 7 11.25 8.457939147949219 11.25 10.25 C 11.25 12.04206085205078 12.70793914794922 13.5 14.5 13.5 C 16.29206085205078 13.5 17.75 12.04206085205078 17.75 10.25 C 17.75 8.457939147949219 16.29206085205078 7 14.5 7 M 14.5 13.48124980926514 C 12.71828079223633 13.48124980926514 11.26874923706055 12.03171920776367 11.26874923706055 10.25 C 11.26874923706055 8.468280792236328 12.71828079223633 7.018749237060547 14.5 7.018749237060547 C 16.28171920776367 7.018749237060547 17.73125076293945 8.468280792236328 17.73125076293945 10.25 C 17.73125076293945 12.03171920776367 16.28171920776367 13.48124980926514 14.5 13.48124980926514 M 14.5 16.5625 C 13.27449035644531 16.5625 11.27112007141113 16.86968040466309 9.558040618896484 17.55593872070312 C 9.066986083984375 17.75265502929688 8.639204025268555 17.96498870849609 8.281253814697266 18.18714141845703 C 8.644805908203125 17.96962738037109 9.113094329833984 17.7414722442627 9.716159820556641 17.50886917114258 C 11.24459075927734 16.91934967041016 12.98822975158691 16.58124923706055 14.5 16.58124923706055 C 16.01177024841309 16.58124923706055 17.75540924072266 16.91934967041016 19.28384017944336 17.50886917114258 C 19.88690567016602 17.7414722442627 20.35519409179688 17.96962738037109 20.71874618530273 18.18714141845703 C 20.36079788208008 17.96498870849609 19.93301391601562 17.75265502929688 19.44195938110352 17.55593872070312 C 17.72887992858887 16.86968040466309 15.72550964355469 16.5625 14.5 16.5625 M 7.070405960083008 19.43515777587891 C 7.0238037109375 19.56136322021484 7 19.68745803833008 7 19.8125 L 7 22 L 22 22 L 22 19.8125 C 22 19.68745803833008 21.9761962890625 19.56136322021484 21.92959403991699 19.43515777587891 C 21.98123550415039 19.59960556030273 21.98125076293945 19.72891616821289 21.98125076293945 19.8125 L 21.98125076293945 21.98125076293945 L 7.018749237060547 21.98125076293945 L 7.018749237060547 19.8125 C 7.018749237060547 19.72891616821289 7.018764495849609 19.59960556030273 7.070405960083008 19.43515777587891 M 14.5 6 C 16.84812927246094 6 18.75 7.901870727539062 18.75 10.25 C 18.75 12.59812927246094 16.84812927246094 14.5 14.5 14.5 C 12.15187072753906 14.5 10.25 12.59812927246094 10.25 10.25 C 10.25 7.901870727539062 12.15187072753906 6 14.5 6 Z M 14.5 12.48125076293945 C 15.73250007629395 12.48125076293945 16.73125076293945 11.48250007629395 16.73125076293945 10.25 C 16.73125076293945 9.017499923706055 15.73250007629395 8.018749237060547 14.5 8.018749237060547 C 13.26749992370605 8.018749237060547 12.26874923706055 9.017499923706055 12.26874923706055 10.25 C 12.26874923706055 11.48250007629395 13.26749992370605 12.48125076293945 14.5 12.48125076293945 Z M 14.5 15.5625 C 17.33687973022461 15.5625 23 16.98624992370605 23 19.8125 L 23 23 L 6 23 L 6 19.8125 C 6 16.98624992370605 11.66312026977539 15.5625 14.5 15.5625 Z M 20.98125076293945 20.98125076293945 L 20.98125076293945 19.8125 C 20.98125076293945 19.13249969482422 17.65562057495117 17.58124923706055 14.5 17.58124923706055 C 11.34437942504883 17.58124923706055 8.018749237060547 19.13249969482422 8.018749237060547 19.8125 L 8.018749237060547 20.98125076293945 L 20.98125076293945 20.98125076293945 Z" stroke="none" fill="#000"/>
  </g>
</svg>
